<svg xmlns="http://www.w3.org/2000/svg" xml:space="preserve" viewBox="0 0 384.766 142.669">
  <path fill="#cc112f" d="M0-.3h384.766v142.969H0z"/>
  <g fill="#fff">
    <path d="M88.958 65.075a8.032 8.032 0 0 1-4.091 4.116l-.053.023a8.2 8.2 0 0 1-3.342.712h-6.257l-2-2H45.223l-2 2h-6.704a7.22 7.22 0 0 1-2.876-.598c-1.88-.833-3.372-2.44-4.192-4.315-1-2.288-2.225-5.085-2.225-5.085v9.496c0 5.8 4.71 10.504 10.513 10.497l5.484-.007-11.997 4.008 3.354 2.237a10.494 10.494 0 0 0 5.823 1.762h2.82v2.382a7.508 7.508 0 0 0 .97 3.69l2.279 4.03 3.249 11.997-.518 2.365a5.787 5.787 0 0 0 4.396 6.886l.17.038c3.587.797 7.304.797 10.89 0l.142-.03c3.145-.7 5.111-3.784 4.43-6.9-.291-1.326-.515-2.358-.515-2.358l3.249-11.997 2.278-4.032a7.508 7.508 0 0 0 .97-3.688v-2.382h2.82c2.074 0 4.1-.612 5.822-1.762l3.355-2.237-11.996-4h5.498c5.8 0 10.497-4.698 10.497-10.496v-9.498z"/>
    <g fill-rule="evenodd" clip-rule="evenodd" image-rendering="optimizeQuality" shape-rendering="geometricPrecision" text-rendering="geometricPrecision">
      <path d="M59.218 32.951c-5.323 0-9.815 4.326-9.815 9.815 0 5.324 4.492 9.649 9.815 9.649 5.49 0 9.815-4.325 9.815-9.649 0-5.49-4.325-9.815-9.815-9.815z" class="fil0"/>
      <path d="M81.177 27.96h-9.482l-3.327-5.988c-.167-.5-.666-.666-.998-.666H51.233c-.333 0-.832.167-.998.666l-3.327 5.989h-9.649c-1.497 0-2.828 1.33-2.828 2.828v8.65h12.31c1.331-5.656 6.488-9.815 12.477-9.815 6.155 0 11.146 4.16 12.643 9.815h12.144v-8.65c0-1.497-1.164-2.828-2.828-2.828zM34.431 42.268v15.97c0 1.664 1.331 2.995 2.828 2.995h43.918c1.664 0 2.828-1.331 2.828-2.995v-15.97H72.194c.166 7.32-5.49 13.475-12.976 13.475s-13.142-5.989-12.975-13.475z" class="fil0"/>
    </g>
  </g>
  <path fill="#fff" d="M142.098 18.994c-11.04 0-19.307 7.735-19.307 19.361 0 11.68 8.586 19.413 19.146 19.413 6.347 0 10.774-3.146 12.694-5.172h.107c0 .426-.052.905-.052 4.478h5.279V36.861h-16v5.44h10.508v4.16c-1.387 2.347-5.708 5.76-12.108 5.76-7.893 0-13.654-5.386-13.654-13.866 0-8.426 5.387-13.814 13.174-13.814 6.933 0 10.24 4.054 11.52 6.4l5.76-1.546c-2.348-5.707-8.534-10.4-17.067-10.4zm74.668 0c-11.04 0-19.414 7.84-19.414 19.414 0 11.52 8.374 19.36 19.414 19.36 11.093 0 19.52-7.84 19.52-19.36 0-11.573-8.427-19.414-19.52-19.414zm-50.135.748v37.332h5.867V43.21h3.787c.693 0 2.186-.001 2.88-.055l8 13.92h7.04l-9.014-14.986c5.014-1.333 8.053-4.8 8.053-10.4 0-7.414-5.333-11.946-14.293-11.946zm75.201 0v37.332h25.973v-5.492h-20.108V40.488h15.307v-5.494h-15.307v-9.76h19.948v-5.492zm30.346 0v5.492h12.373v31.84h5.867v-31.84h12.373v-5.492zm36.213 0v37.332h25.974v-5.492h-20.107V40.488h15.306v-5.494h-15.306v-9.76h19.947v-5.492zm32.214 0v37.332h5.866V38.568c0-4.693-.106-9.12-.106-9.173h.106l19.894 27.68h5.973V19.741h-5.867V38.3c0 4.213.107 8.694.107 8.748h-.16l-19.84-27.307zm-123.84 4.799c7.68 0 13.6 5.28 13.6 13.867 0 8.534-5.92 13.813-13.6 13.813-7.626 0-13.494-5.333-13.494-13.813 0-8.533 5.868-13.867 13.495-13.867zm-44.267.588h6.72c5.067 0 8 2.293 8 6.826 0 4.64-3.04 6.453-7.786 6.453h-6.934zm68.107 43.865c-11.04 0-19.414 7.84-19.414 19.414 0 11.52 8.374 19.36 19.414 19.36 11.094 0 19.52-7.84 19.52-19.36 0-11.573-8.426-19.414-19.52-19.414zm37.227 0c-8 0-13.121 3.733-13.121 10.613 0 7.627 6.4 9.655 11.52 10.829 4.586 1.066 10.187 1.173 10.187 6.453 0 3.786-2.88 5.652-7.627 5.652-5.12 0-9.012-2.133-9.492-6.666l-5.654 1.547c1.546 8.32 8.8 10.346 15.146 10.346 8.533 0 13.6-3.68 13.6-10.88 0-8.213-6.506-10.134-12.053-11.2-5.333-1.067-9.652-1.973-9.652-6.293 0-3.2 2.291-5.174 7.091-5.174 4.907 0 7.628 2.08 8.641 5.707l5.6-1.492c-1.814-6.454-6.986-9.442-14.186-9.442zm32.213 0c-8 0-13.121 3.733-13.121 10.613 0 7.627 6.401 9.655 11.521 10.829 4.587 1.066 10.186 1.173 10.186 6.453 0 3.786-2.88 5.652-7.627 5.652-5.12 0-9.012-2.133-9.492-6.666l-5.655 1.547c1.547 8.32 8.8 10.346 15.147 10.346 8.533 0 13.601-3.68 13.601-10.88 0-8.213-6.508-10.134-12.054-11.2-5.334-1.067-9.653-1.973-9.653-6.293 0-3.2 2.294-5.174 7.094-5.174 4.907 0 7.626 2.08 8.639 5.707l5.6-1.492c-1.814-6.454-6.986-9.442-14.186-9.442zm-185.813.748V91.13c0 10.773 5.653 16.639 15.36 16.639 9.706 0 15.36-5.866 15.36-16.64V69.743h-5.813v21.332c0 7.52-3.041 11.147-9.494 11.147-6.4 0-9.44-3.627-9.44-11.147V69.742Zm37.813 0v37.332h5.867V69.742Zm11.467 0v5.492h12.373v31.84h5.867v-31.84h12.373v-5.492zm67.093 4.799c7.68 0 13.6 5.28 13.6 13.867 0 8.534-5.92 13.813-13.6 13.813-7.626 0-13.494-5.333-13.494-13.813 0-8.533 5.868-13.867 13.494-13.867z" transform="translate(-13.281 8.594)"/>
</svg>
